<svg width="18" height="19" viewBox="0 0 18 19" fill="none" xmlns="http://www.w3.org/2000/svg">
<path d="M15.75 6.5C16.5784 6.5 17.25 7.17157 17.25 8V11C17.25 11.8284 16.5784 12.5 15.75 12.5H14.9536C14.5845 15.4597 12.0597 17.75 9 17.75V16.25C11.4853 16.25 13.5 14.2353 13.5 11.75V7.25C13.5 4.76472 11.4853 2.75 9 2.75C6.51472 2.75 4.5 4.76472 4.5 7.25V12.5H2.25C1.42157 12.5 0.75 11.8284 0.75 11V8C0.75 7.17157 1.42157 6.5 2.25 6.5H3.04642C3.41549 3.54027 5.94029 1.25 9 1.25C12.0597 1.25 14.5845 3.54027 14.9536 6.5H15.75ZM5.81958 12.3387L6.61469 11.0665C7.30621 11.4997 8.12385 11.75 9 11.75C9.87615 11.75 10.6938 11.4997 11.3853 11.0665L12.1805 12.3387C11.2584 12.9162 10.1682 13.25 9 13.25C7.8318 13.25 6.74161 12.9162 5.81958 12.3387Z" fill="white"/>
</svg>
